<mxfile host="65bd71144e">
    <diagram id="9ctAfNcJLaRTBxjFA6Yr" name="第 1 页">
        <mxGraphModel dx="1018" dy="570" grid="1" gridSize="10" guides="1" tooltips="1" connect="1" arrows="1" fold="1" page="1" pageScale="1" pageWidth="827" pageHeight="1169" math="0" shadow="0">
            <root>
                <mxCell id="XQuOt5WqBIXUd8Vpl1ev-0"/>
                <mxCell id="XQuOt5WqBIXUd8Vpl1ev-1" parent="XQuOt5WqBIXUd8Vpl1ev-0"/>
                <mxCell id="4almOmOkFrd5ab4E6r8S-0" value="&lt;div style=&quot;box-sizing:border-box;width:100%;background:#e4e4e4;padding:2px;&quot;&gt;users&lt;/div&gt;&lt;table style=&quot;width:100%;font-size:1em;&quot; cellpadding=&quot;2&quot; cellspacing=&quot;0&quot;&gt;&lt;tbody&gt;&lt;tr&gt;&lt;td&gt;PK&lt;/td&gt;&lt;td&gt;id&lt;/td&gt;&lt;/tr&gt;&lt;/tbody&gt;&lt;/table&gt;" style="verticalAlign=top;align=left;overflow=fill;html=1;" vertex="1" parent="XQuOt5WqBIXUd8Vpl1ev-1">
                    <mxGeometry x="590" y="35" width="180" height="50" as="geometry"/>
                </mxCell>
                <mxCell id="4almOmOkFrd5ab4E6r8S-1" style="rounded=0;orthogonalLoop=1;jettySize=auto;html=1;exitX=1;exitY=0.5;exitDx=0;exitDy=0;entryX=0;entryY=0.5;entryDx=0;entryDy=0;" edge="1" parent="XQuOt5WqBIXUd8Vpl1ev-1" source="4almOmOkFrd5ab4E6r8S-4" target="4almOmOkFrd5ab4E6r8S-8">
                    <mxGeometry relative="1" as="geometry"/>
                </mxCell>
                <mxCell id="4almOmOkFrd5ab4E6r8S-2" style="edgeStyle=none;rounded=0;orthogonalLoop=1;jettySize=auto;html=1;exitX=1;exitY=0.5;exitDx=0;exitDy=0;entryX=0;entryY=0.5;entryDx=0;entryDy=0;" edge="1" parent="XQuOt5WqBIXUd8Vpl1ev-1" source="4almOmOkFrd5ab4E6r8S-21" target="4almOmOkFrd5ab4E6r8S-11">
                    <mxGeometry relative="1" as="geometry">
                        <mxPoint x="190" y="290" as="targetPoint"/>
                    </mxGeometry>
                </mxCell>
                <mxCell id="4almOmOkFrd5ab4E6r8S-3" style="rounded=0;orthogonalLoop=1;jettySize=auto;html=1;exitX=1;exitY=0.5;exitDx=0;exitDy=0;entryX=0;entryY=0.5;entryDx=0;entryDy=0;" edge="1" parent="XQuOt5WqBIXUd8Vpl1ev-1" source="4almOmOkFrd5ab4E6r8S-4" target="4almOmOkFrd5ab4E6r8S-20">
                    <mxGeometry relative="1" as="geometry"/>
                </mxCell>
                <mxCell id="4almOmOkFrd5ab4E6r8S-4" value="&lt;div&gt;&lt;/div&gt;&lt;div style&gt;Principal&lt;/div&gt;（领导）" style="rounded=0;whiteSpace=wrap;html=1;" vertex="1" parent="XQuOt5WqBIXUd8Vpl1ev-1">
                    <mxGeometry x="10" y="140" width="100" height="50" as="geometry"/>
                </mxCell>
                <mxCell id="4almOmOkFrd5ab4E6r8S-5" style="edgeStyle=none;rounded=0;orthogonalLoop=1;jettySize=auto;html=1;exitX=1;exitY=0.5;exitDx=0;exitDy=0;entryX=0;entryY=0.5;entryDx=0;entryDy=0;" edge="1" parent="XQuOt5WqBIXUd8Vpl1ev-1" source="4almOmOkFrd5ab4E6r8S-8" target="4almOmOkFrd5ab4E6r8S-12">
                    <mxGeometry relative="1" as="geometry"/>
                </mxCell>
                <mxCell id="4almOmOkFrd5ab4E6r8S-6" style="edgeStyle=none;rounded=0;orthogonalLoop=1;jettySize=auto;html=1;exitX=1;exitY=0.5;exitDx=0;exitDy=0;entryX=0;entryY=0.5;entryDx=0;entryDy=0;" edge="1" parent="XQuOt5WqBIXUd8Vpl1ev-1" source="4almOmOkFrd5ab4E6r8S-8" target="4almOmOkFrd5ab4E6r8S-17">
                    <mxGeometry relative="1" as="geometry"/>
                </mxCell>
                <mxCell id="4almOmOkFrd5ab4E6r8S-7" style="edgeStyle=none;rounded=0;orthogonalLoop=1;jettySize=auto;html=1;exitX=1;exitY=0.5;exitDx=0;exitDy=0;entryX=0;entryY=0.5;entryDx=0;entryDy=0;" edge="1" parent="XQuOt5WqBIXUd8Vpl1ev-1" source="4almOmOkFrd5ab4E6r8S-8" target="4almOmOkFrd5ab4E6r8S-13">
                    <mxGeometry relative="1" as="geometry"/>
                </mxCell>
                <mxCell id="4almOmOkFrd5ab4E6r8S-8" value="Role&lt;br /&gt;(主编）" style="rounded=0;whiteSpace=wrap;html=1;" vertex="1" parent="XQuOt5WqBIXUd8Vpl1ev-1">
                    <mxGeometry x="200" y="190" width="120" height="60" as="geometry"/>
                </mxCell>
                <mxCell id="4almOmOkFrd5ab4E6r8S-9" style="edgeStyle=none;rounded=0;orthogonalLoop=1;jettySize=auto;html=1;exitX=1;exitY=0.5;exitDx=0;exitDy=0;entryX=0;entryY=0.5;entryDx=0;entryDy=0;" edge="1" parent="XQuOt5WqBIXUd8Vpl1ev-1" source="4almOmOkFrd5ab4E6r8S-11" target="4almOmOkFrd5ab4E6r8S-13">
                    <mxGeometry relative="1" as="geometry">
                        <mxPoint x="390" y="330" as="targetPoint"/>
                    </mxGeometry>
                </mxCell>
                <mxCell id="4almOmOkFrd5ab4E6r8S-10" style="rounded=0;orthogonalLoop=1;jettySize=auto;html=1;exitX=1;exitY=0.5;exitDx=0;exitDy=0;entryX=0;entryY=0.5;entryDx=0;entryDy=0;" edge="1" parent="XQuOt5WqBIXUd8Vpl1ev-1" source="4almOmOkFrd5ab4E6r8S-11" target="4almOmOkFrd5ab4E6r8S-17">
                    <mxGeometry relative="1" as="geometry"/>
                </mxCell>
                <mxCell id="4almOmOkFrd5ab4E6r8S-11" value="Role&lt;br /&gt;（小编）" style="rounded=0;whiteSpace=wrap;html=1;" vertex="1" parent="XQuOt5WqBIXUd8Vpl1ev-1">
                    <mxGeometry x="200" y="270" width="120" height="60" as="geometry"/>
                </mxCell>
                <mxCell id="4almOmOkFrd5ab4E6r8S-12" value="Permission&lt;br /&gt;（文章审批）" style="rounded=0;whiteSpace=wrap;html=1;" vertex="1" parent="XQuOt5WqBIXUd8Vpl1ev-1">
                    <mxGeometry x="390" y="110" width="120" height="60" as="geometry"/>
                </mxCell>
                <mxCell id="4almOmOkFrd5ab4E6r8S-13" value="Permission&lt;br /&gt;（文章查看）" style="rounded=0;whiteSpace=wrap;html=1;" vertex="1" parent="XQuOt5WqBIXUd8Vpl1ev-1">
                    <mxGeometry x="390" y="300" width="120" height="60" as="geometry"/>
                </mxCell>
                <mxCell id="4almOmOkFrd5ab4E6r8S-14" value="" style="endArrow=none;dashed=1;html=1;" edge="1" parent="XQuOt5WqBIXUd8Vpl1ev-1">
                    <mxGeometry width="50" height="50" relative="1" as="geometry">
                        <mxPoint x="540" y="410" as="sourcePoint"/>
                        <mxPoint x="540" y="100" as="targetPoint"/>
                    </mxGeometry>
                </mxCell>
                <mxCell id="4almOmOkFrd5ab4E6r8S-15" value="关系" style="text;html=1;strokeColor=none;fillColor=none;align=center;verticalAlign=middle;whiteSpace=wrap;rounded=0;" vertex="1" parent="XQuOt5WqBIXUd8Vpl1ev-1">
                    <mxGeometry x="240" y="380" width="40" height="20" as="geometry"/>
                </mxCell>
                <mxCell id="4almOmOkFrd5ab4E6r8S-16" value="表设计" style="text;html=1;strokeColor=none;fillColor=none;align=center;verticalAlign=middle;whiteSpace=wrap;rounded=0;" vertex="1" parent="XQuOt5WqBIXUd8Vpl1ev-1">
                    <mxGeometry x="660" y="380" width="40" height="20" as="geometry"/>
                </mxCell>
                <mxCell id="4almOmOkFrd5ab4E6r8S-17" value="Permission&lt;br /&gt;（文章编辑）" style="rounded=0;whiteSpace=wrap;html=1;" vertex="1" parent="XQuOt5WqBIXUd8Vpl1ev-1">
                    <mxGeometry x="390" y="200" width="120" height="60" as="geometry"/>
                </mxCell>
                <mxCell id="4almOmOkFrd5ab4E6r8S-18" value="Permission&lt;br /&gt;（文章发布）" style="rounded=0;whiteSpace=wrap;html=1;" vertex="1" parent="XQuOt5WqBIXUd8Vpl1ev-1">
                    <mxGeometry x="390" y="30" width="120" height="60" as="geometry"/>
                </mxCell>
                <mxCell id="4almOmOkFrd5ab4E6r8S-19" style="edgeStyle=none;rounded=0;orthogonalLoop=1;jettySize=auto;html=1;exitX=1;exitY=0.5;exitDx=0;exitDy=0;entryX=0;entryY=0.5;entryDx=0;entryDy=0;" edge="1" parent="XQuOt5WqBIXUd8Vpl1ev-1" source="4almOmOkFrd5ab4E6r8S-20" target="4almOmOkFrd5ab4E6r8S-18">
                    <mxGeometry relative="1" as="geometry"/>
                </mxCell>
                <mxCell id="4almOmOkFrd5ab4E6r8S-20" value="Role&lt;br /&gt;（发布者）" style="rounded=0;whiteSpace=wrap;html=1;" vertex="1" parent="XQuOt5WqBIXUd8Vpl1ev-1">
                    <mxGeometry x="200" y="100" width="120" height="60" as="geometry"/>
                </mxCell>
                <mxCell id="4almOmOkFrd5ab4E6r8S-21" value="&lt;div&gt;&lt;/div&gt;&lt;div style&gt;Principal&lt;/div&gt;（小兵）" style="rounded=0;whiteSpace=wrap;html=1;" vertex="1" parent="XQuOt5WqBIXUd8Vpl1ev-1">
                    <mxGeometry x="10" y="275" width="100" height="50" as="geometry"/>
                </mxCell>
                <mxCell id="4almOmOkFrd5ab4E6r8S-22" style="edgeStyle=orthogonalEdgeStyle;rounded=0;orthogonalLoop=1;jettySize=auto;html=1;exitX=0.5;exitY=1;exitDx=0;exitDy=0;" edge="1" parent="XQuOt5WqBIXUd8Vpl1ev-1" source="4almOmOkFrd5ab4E6r8S-0" target="4almOmOkFrd5ab4E6r8S-0">
                    <mxGeometry relative="1" as="geometry"/>
                </mxCell>
                <mxCell id="4almOmOkFrd5ab4E6r8S-23" value="&lt;div style=&quot;box-sizing:border-box;width:100%;background:#e4e4e4;padding:2px;&quot;&gt;roles&lt;/div&gt;&lt;table style=&quot;width:100%;font-size:1em;&quot; cellpadding=&quot;2&quot; cellspacing=&quot;0&quot;&gt;&lt;tbody&gt;&lt;tr&gt;&lt;td&gt;PK&lt;/td&gt;&lt;td&gt;id&lt;/td&gt;&lt;/tr&gt;&lt;tr&gt;&lt;td&gt;&lt;br /&gt;&lt;/td&gt;&lt;td&gt;name&lt;/td&gt;&lt;/tr&gt;&lt;/tbody&gt;&lt;/table&gt;" style="verticalAlign=top;align=left;overflow=fill;html=1;" vertex="1" parent="XQuOt5WqBIXUd8Vpl1ev-1">
                    <mxGeometry x="590" y="185" width="180" height="60" as="geometry"/>
                </mxCell>
                <mxCell id="4almOmOkFrd5ab4E6r8S-24" value="&lt;div style=&quot;box-sizing:border-box;width:100%;background:#e4e4e4;padding:2px;&quot;&gt;user_roles&lt;/div&gt;&lt;table style=&quot;width:100%;font-size:1em;&quot; cellpadding=&quot;2&quot; cellspacing=&quot;0&quot;&gt;&lt;tbody&gt;&lt;tr&gt;&lt;td&gt;FK1_1&lt;/td&gt;&lt;td&gt;user_id&lt;/td&gt;&lt;/tr&gt;&lt;tr&gt;&lt;td&gt;FK1_2&lt;/td&gt;&lt;td&gt;role_id&lt;/td&gt;&lt;/tr&gt;&lt;/tbody&gt;&lt;/table&gt;" style="verticalAlign=top;align=left;overflow=fill;html=1;" vertex="1" parent="XQuOt5WqBIXUd8Vpl1ev-1">
                    <mxGeometry x="590" y="105" width="180" height="60" as="geometry"/>
                </mxCell>
                <mxCell id="4almOmOkFrd5ab4E6r8S-25" value="&lt;div style=&quot;box-sizing:border-box;width:100%;background:#e4e4e4;padding:2px;&quot;&gt;role_permissions&lt;/div&gt;&lt;table style=&quot;width:100%;font-size:1em;&quot; cellpadding=&quot;2&quot; cellspacing=&quot;0&quot;&gt;&lt;tbody&gt;&lt;tr&gt;&lt;td&gt;FK1_1&lt;/td&gt;&lt;td&gt;role_id&lt;/td&gt;&lt;/tr&gt;&lt;tr&gt;&lt;td&gt;FK1_2&lt;/td&gt;&lt;td&gt;permission&lt;/td&gt;&lt;/tr&gt;&lt;/tbody&gt;&lt;/table&gt;" style="verticalAlign=top;align=left;overflow=fill;html=1;" vertex="1" parent="XQuOt5WqBIXUd8Vpl1ev-1">
                    <mxGeometry x="590" y="265" width="180" height="60" as="geometry"/>
                </mxCell>
            </root>
        </mxGraphModel>
    </diagram>
</mxfile>